<?xml version="1.0" standalone="no"?>
<!DOCTYPE svg PUBLIC "-//W3C//DTD SVG 20010904//EN"
 "http://www.w3.org/TR/2001/REC-SVG-20010904/DTD/svg10.dtd">
<svg version="1.0" xmlns="http://www.w3.org/2000/svg"
 width="360.000000pt" height="360.000000pt" viewBox="0 0 360.000000 360.000000"
 preserveAspectRatio="xMidYMid meet">

<g transform="translate(0.000000,360.000000) scale(0.100000,-0.100000)"
fill="#f6c948" stroke="none">
<path d="M2399 3397 c-64 -24 -104 -54 -197 -151 -288 -297 -344 -605 -148
-802 76 -75 149 -107 257 -112 105 -5 175 13 252 67 120 84 180 218 223 503
24 161 23 261 -3 319 -29 64 -87 126 -147 156 -62 32 -180 41 -237 20z"/>
<path d="M985 3377 c-66 -22 -99 -43 -142 -90 -72 -78 -78 -97 -78 -232 1
-173 47 -409 103 -524 53 -111 163 -196 287 -221 154 -32 332 46 412 181 51
85 70 172 57 261 -14 95 -63 211 -135 317 -72 108 -229 263 -294 292 -60 26
-156 33 -210 16z"/>
<path d="M3165 2447 c-22 -8 -50 -19 -62 -25 -82 -44 -290 -273 -335 -370 -27
-57 -30 -70 -26 -145 6 -131 65 -224 180 -284 47 -25 63 -28 148 -28 84 0 101
3 147 28 67 35 163 125 258 241 97 120 118 167 118 268 0 68 -5 87 -32 143
-35 70 -87 122 -160 157 -55 26 -177 34 -236 15z"/>
<path d="M214 2420 c-142 -56 -231 -214 -204 -360 15 -81 56 -154 134 -237 78
-84 167 -151 251 -189 125 -58 277 -24 375 82 87 96 111 240 59 354 -43 92
-239 283 -349 340 -64 34 -195 38 -266 10z"/>
<path d="M1500 2136 c-94 -33 -158 -68 -213 -116 -112 -99 -480 -600 -620
-845 -150 -262 -173 -488 -69 -692 56 -108 183 -219 307 -265 l60 -23 787 -3
c879 -3 859 -4 992 66 127 66 222 183 272 332 30 90 25 229 -14 370 -46 171
-95 283 -195 450 -159 264 -480 611 -644 694 -75 38 -143 47 -373 51 -212 3
-229 2 -290 -19z m510 -606 l0 -210 210 0 210 0 0 -200 0 -200 -210 0 -210 0
0 -210 0 -210 -205 0 -205 0 0 210 0 210 -210 0 -210 0 0 200 0 200 210 0 210
0 0 210 0 210 205 0 205 0 0 -210z"/>
</g>
</svg>
