<?xml version="1.0" standalone="no"?>
<!DOCTYPE svg PUBLIC "-//W3C//DTD SVG 20010904//EN"
 "http://www.w3.org/TR/2001/REC-SVG-20010904/DTD/svg10.dtd">
<svg version="1.0" xmlns="http://www.w3.org/2000/svg"
 width="890.000000pt" height="567.000000pt" viewBox="0 0 890.000000 567.000000"
 preserveAspectRatio="xMidYMid meet">

<g transform="translate(0.000000,567.000000) scale(0.100000,-0.100000)"
fill="#f6c948" stroke="none">
<path d="M4130 5491 c-187 -30 -416 -97 -530 -154 -54 -27 -66 -37 -68 -60 -4
-36 36 -176 94 -331 24 -65 43 -120 42 -121 -2 -1 -124 -91 -271 -200 -282
-208 -392 -307 -576 -520 -149 -172 -343 -416 -337 -423 2 -1 57 21 122 49 65
28 199 80 297 115 529 190 687 270 820 413 31 34 75 94 99 134 62 107 136 180
231 227 44 22 87 40 97 40 10 0 38 20 63 44 110 106 326 256 531 366 l96 52 0
-67 c0 -37 -7 -142 -16 -234 -13 -137 -13 -166 -2 -170 39 -13 169 -88 222
-128 80 -61 226 -203 286 -278 26 -33 73 -107 105 -165 66 -121 89 -156 190
-285 82 -105 85 -116 59 -206 -51 -170 -173 -312 -312 -361 -77 -27 -113 -20
-252 46 -153 72 -216 90 -301 84 -82 -6 -118 -26 -250 -135 -369 -304 -563
-522 -688 -771 -141 -280 -172 -572 -95 -892 51 -213 43 -336 -33 -555 -19
-55 -50 -145 -69 -200 -20 -55 -42 -129 -50 -165 -30 -127 -7 -295 55 -418 59
-115 50 -123 129 123 39 121 75 243 81 272 16 77 23 278 25 663 1 342 1 345
25 390 55 104 188 289 398 551 173 217 255 305 296 318 18 5 82 15 142 21 61
6 147 20 192 30 91 22 224 84 264 123 l25 26 120 -33 119 -33 36 -57 c75 -118
163 -185 257 -193 113 -10 207 43 277 156 35 57 38 59 89 65 57 6 156 41 235
81 85 43 153 116 246 263 47 75 102 157 122 182 l35 45 -4 95 c-4 72 -12 114
-33 170 -27 70 -29 87 -34 272 -5 178 -8 199 -27 225 -37 50 -84 65 -233 74
-139 8 -350 46 -418 74 -84 35 -98 73 -68 188 24 94 20 155 -15 211 -66 103
-303 324 -529 494 -134 101 -314 187 -536 257 -74 24 -103 38 -111 54 -71 140
-361 211 -664 162z"/>
<path d="M3417 3736 c-21 -8 -56 -27 -79 -42 -98 -69 -128 -85 -203 -108 -203
-64 -347 -52 -482 41 -35 24 -63 40 -63 37 0 -3 16 -30 36 -60 64 -96 154
-160 288 -206 l79 -26 -39 -9 c-21 -4 -78 -8 -126 -8 -49 0 -88 -3 -88 -7 0
-19 213 -138 247 -138 34 0 16 -43 -76 -179 -62 -91 -146 -231 -180 -298 -151
-302 -216 -659 -181 -991 46 -417 224 -863 538 -1340 90 -137 115 -167 92
-108 -29 78 -96 400 -114 553 -12 95 -7 320 8 415 39 239 126 381 373 608 183
168 215 224 234 419 13 125 1 298 -37 517 -13 77 -27 173 -30 212 -7 70 -6 71
29 119 45 61 100 114 121 117 10 1 21 9 26 16 7 11 11 8 19 -13 6 -16 11 -35
11 -43 0 -21 15 -17 49 12 26 21 31 33 31 67 0 112 -184 359 -312 419 -70 34
-124 41 -171 24z"/>
</g>
</svg>
